<svg xmlns="http://www.w3.org/2000/svg" xmlns:xlink="http://www.w3.org/1999/xlink" xml:space="preserve" version="1.1"  viewBox="0 0 298 278" x="0px" y="0px" fill-rule="evenodd" clip-rule="evenodd"><defs></defs><g><circle  transform="matrix(-0.124442 0.144031 0.144031 0.124442 24.7781 189.052)" r="116"></circle><path  d="M55 155c4,5 10,6 16,4l44 -15c19,-7 9,-36 -11,-29l-43 15c-6,2 -10,8 -11,14l-7 2c-7,3 -3,15 5,12l7 -3z"></path><path  d="M178 100c-4,11 14,16 17,5l14 -51 43 -22 -15 -32 -41 46c-2,2 -4,4 -4,6l-14 48z"></path><circle  transform="matrix(-0.0486568 -0.0128962 -0.0128962 0.0486568 6.01816 145.784)" r="116"></circle><circle  transform="matrix(-0.0602916 -0.0159799 -0.0159799 0.0602916 20.8975 126.918)" r="116"></circle><circle  transform="matrix(-0.0735209 -0.0194862 -0.0194862 0.0735209 12.0865 106.182)" r="116"></circle><circle  transform="matrix(-0.0375452 -0.0099511 -0.0099511 0.0375452 4.50834 162.47)" r="116"></circle><path  d="M142 173c5,-2 9,-7 10,-12l41 -15c2,-1 4,-2 5,-3l45 -66 55 -6 -20 -29 -48 26c-1,0 -2,1 -4,3l-41 59c-23,8 -48,9 -55,11l-65 24c-6,2 -14,10 -12,17l8 30 -46 4c-11,1 -10,19 2,18l38 -3 -26 33c-7,9 6,20 14,11l36 -46c2,-3 3,-6 2,-9l-6 -23c0,0 1,-1 1,-1l66 -23z"></path></g></svg>