<?xml version="1.0" standalone="no"?>
<!DOCTYPE svg PUBLIC "-//W3C//DTD SVG 20010904//EN"
 "http://www.w3.org/TR/2001/REC-SVG-20010904/DTD/svg10.dtd">
<svg version="1.0" xmlns="http://www.w3.org/2000/svg"
 width="200.000000pt" height="200.000000pt" viewBox="0 0 200.000000 200.000000"
 preserveAspectRatio="xMidYMid meet">
<metadata>
Created by potrace 1.11, written by Peter Selinger 2001-2013
</metadata><g><rect x="0" y="0" width="200" height="200" fill="#ffffff" />
<g transform="translate(0.000000,200.000000) scale(0.026882,-0.026882)"
fill="#000000" stroke="none">
<path d="M720 5880 l0 -840 840 0 840 0 0 840 0 840 -840 0 -840 0 0 -840z
m1440 0 l0 -600 -600 0 -600 0 0 600 0 600 600 0 600 0 0 -600z"/>
<path d="M1200 5880 l0 -360 360 0 360 0 0 360 0 360 -360 0 -360 0 0 -360z"/>
<path d="M3360 6600 l0 -120 -120 0 -120 0 0 -120 0 -120 -120 0 -120 0 0 120
0 120 -120 0 -120 0 0 -120 0 -120 120 0 120 0 0 -120 0 -120 -120 0 -120 0 0
-120 0 -120 120 0 120 0 0 120 0 120 120 0 120 0 0 -120 0 -120 120 0 120 0 0
-120 0 -120 -360 0 -360 0 0 -240 0 -240 120 0 120 0 0 -120 0 -120 -360 0
-360 0 0 -120 0 -120 360 0 360 0 0 120 0 120 240 0 240 0 0 -240 0 -240 -120
0 -120 0 0 -120 0 -120 -240 0 -240 0 0 -120 0 -120 -240 0 -240 0 0 120 0
120 120 0 120 0 0 120 0 120 -120 0 -120 0 0 -120 0 -120 -120 0 -120 0 0 360
0 360 -600 0 -600 0 0 -360 0 -360 120 0 120 0 0 -240 0 -240 -120 0 -120 0 0
-480 0 -480 120 0 120 0 0 480 0 480 120 0 120 0 0 240 0 240 120 0 120 0 0
-120 0 -120 240 0 240 0 0 -120 0 -120 -240 0 -240 0 0 -120 0 -120 -120 0
-120 0 0 -360 0 -360 240 0 240 0 0 120 0 120 -120 0 -120 0 0 240 0 240 240
0 240 0 0 -240 0 -240 120 0 120 0 0 -120 0 -120 120 0 120 0 0 120 0 120 120
0 120 0 0 -360 0 -360 120 0 120 0 0 120 0 120 120 0 120 0 0 -120 0 -120 120
0 120 0 0 -120 0 -120 240 0 240 0 0 -120 0 -120 480 0 480 0 0 -120 0 -120
240 0 240 0 0 120 0 120 120 0 120 0 0 -120 0 -120 120 0 120 0 0 -120 0 -120
-360 0 -360 0 0 -120 0 -120 120 0 120 0 0 -120 0 -120 720 0 720 0 0 360 0
360 -120 0 -120 0 0 -240 0 -240 -240 0 -240 0 0 120 0 120 120 0 120 0 0 360
0 360 -120 0 -120 0 0 120 0 120 240 0 240 0 0 -240 0 -240 120 0 120 0 0 360
0 360 -360 0 -360 0 0 120 0 120 120 0 120 0 0 120 0 120 -120 0 -120 0 0
-120 0 -120 -120 0 -120 0 0 240 0 240 120 0 120 0 0 240 0 240 120 0 120 0 0
-240 0 -240 120 0 120 0 0 -120 0 -120 120 0 120 0 0 240 0 240 -120 0 -120 0
0 120 0 120 120 0 120 0 0 360 0 360 -120 0 -120 0 0 240 0 240 -120 0 -120 0
0 -360 0 -360 120 0 120 0 0 -120 0 -120 -240 0 -240 0 0 -120 0 -120 -120 0
-120 0 0 120 0 120 -360 0 -360 0 0 120 0 120 480 0 480 0 0 120 0 120 -240 0
-240 0 0 240 0 240 -120 0 -120 0 0 -240 0 -240 -120 0 -120 0 0 -120 0 -120
-120 0 -120 0 0 240 0 240 120 0 120 0 0 120 0 120 -120 0 -120 0 0 240 0 240
-120 0 -120 0 0 120 0 120 120 0 120 0 0 120 0 120 -120 0 -120 0 0 -120 0
-120 -480 0 -480 0 0 120 0 120 360 0 360 0 0 120 0 120 120 0 120 0 0 120 0
120 120 0 120 0 0 240 0 240 -120 0 -120 0 0 -120 0 -120 -240 0 -240 0 0 120
0 120 -120 0 -120 0 0 -240 0 -240 -240 0 -240 0 0 120 0 120 120 0 120 0 0
120 0 120 -120 0 -120 0 0 -120z m960 -480 l0 -120 -240 0 -240 0 0 120 0 120
240 0 240 0 0 -120z m-720 -240 l0 -120 -120 0 -120 0 0 120 0 120 120 0 120
0 0 -120z m0 -600 l0 -240 120 0 120 0 0 120 0 120 120 0 120 0 0 -240 0 -240
-240 0 -240 0 0 120 0 120 -120 0 -120 0 0 240 0 240 120 0 120 0 0 -240z
m-480 -120 l0 -120 -120 0 -120 0 0 120 0 120 120 0 120 0 0 -120z m1440 -120
l0 -240 -120 0 -120 0 0 240 0 240 120 0 120 0 0 -240z m-2880 -600 l0 -120
-240 0 -240 0 0 -120 0 -120 -120 0 -120 0 0 120 0 120 120 0 120 0 0 120 0
120 240 0 240 0 0 -120z m2880 0 l0 -120 -240 0 -240 0 0 -240 0 -240 -120 0
-120 0 0 120 0 120 -120 0 -120 0 0 -240 0 -240 360 0 360 0 0 120 0 120 120
0 120 0 0 120 0 120 120 0 120 0 0 -240 0 -240 -120 0 -120 0 0 -120 0 -120
120 0 120 0 0 -120 0 -120 -120 0 -120 0 0 120 0 120 -120 0 -120 0 0 -120 0
-120 -120 0 -120 0 0 -120 0 -120 -120 0 -120 0 0 120 0 120 -240 0 -240 0 0
-240 0 -240 -120 0 -120 0 0 120 0 120 -120 0 -120 0 0 120 0 120 120 0 120 0
0 360 0 360 120 0 120 0 0 240 0 240 360 0 360 0 0 120 0 120 240 0 240 0 0
-120z m-1680 -720 l0 -120 -120 0 -120 0 0 -240 0 -240 -120 0 -120 0 0 -120
0 -120 -120 0 -120 0 0 120 0 120 120 0 120 0 0 120 0 120 -120 0 -120 0 0
120 0 120 240 0 240 0 0 120 0 120 120 0 120 0 0 -120z m2400 -240 l0 -120
-120 0 -120 0 0 120 0 120 120 0 120 0 0 -120z m480 0 l0 -120 -120 0 -120 0
0 120 0 120 120 0 120 0 0 -120z m-1920 -1080 l0 -240 120 0 120 0 0 240 0
240 120 0 120 0 0 -120 0 -120 120 0 120 0 0 -240 0 -240 -120 0 -120 0 0 120
0 120 -120 0 -120 0 0 -120 0 -120 -120 0 -120 0 0 120 0 120 -240 0 -240 0 0
120 0 120 120 0 120 0 0 120 0 120 120 0 120 0 0 -240z m1680 -120 l0 -360
-360 0 -360 0 0 360 0 360 360 0 360 0 0 -360z m480 0 l0 -120 -120 0 -120 0
0 120 0 120 120 0 120 0 0 -120z m0 -480 l0 -120 -120 0 -120 0 0 120 0 120
120 0 120 0 0 -120z"/>
<path d="M3360 3480 l0 -120 120 0 120 0 0 120 0 120 -120 0 -120 0 0 -120z"/>
<path d="M5040 2280 l0 -120 120 0 120 0 0 120 0 120 -120 0 -120 0 0 -120z"/>
<path d="M5040 5880 l0 -840 840 0 840 0 0 840 0 840 -840 0 -840 0 0 -840z
m1440 0 l0 -600 -600 0 -600 0 0 600 0 600 600 0 600 0 0 -600z"/>
<path d="M5520 5880 l0 -360 360 0 360 0 0 360 0 360 -360 0 -360 0 0 -360z"/>
<path d="M5760 4680 l0 -120 120 0 120 0 0 120 0 120 -120 0 -120 0 0 -120z"/>
<path d="M720 1560 l0 -840 840 0 840 0 0 840 0 840 -840 0 -840 0 0 -840z
m1440 0 l0 -600 -600 0 -600 0 0 600 0 600 600 0 600 0 0 -600z"/>
<path d="M1200 1560 l0 -360 360 0 360 0 0 360 0 360 -360 0 -360 0 0 -360z"/>
<path d="M2640 1320 l0 -600 120 0 120 0 0 120 0 120 120 0 120 0 0 -120 0
-120 120 0 120 0 0 120 0 120 240 0 240 0 0 -120 0 -120 240 0 240 0 0 120 0
120 240 0 240 0 0 120 0 120 -120 0 -120 0 0 120 0 120 -120 0 -120 0 0 -120
0 -120 -120 0 -120 0 0 -120 0 -120 -120 0 -120 0 0 240 0 240 -120 0 -120 0
0 120 0 120 -360 0 -360 0 0 120 0 120 -120 0 -120 0 0 -600z m960 0 l0 -120
-120 0 -120 0 0 -120 0 -120 -120 0 -120 0 0 240 0 240 240 0 240 0 0 -120z"/>
</g>
</g></svg>
